<svg viewBox="0 0 44 44" xmlns="http://www.w3.org/2000/svg" xmlns:xlink="http://www.w3.org/1999/xlink" width="44.000000" height="44.000000" fill="none" customFrame="url(#clipPath_10)">
	<defs>
		<clipPath id="clipPath_10">
			<rect width="44.000000" height="44.000000" x="0.000000" y="0.000000" rx="22.000000" fill="rgb(255,255,255)" />
		</clipPath>
		<clipPath id="clipPath_11">
			<rect width="24.000000" height="24.000000" x="10.000000" y="10.000000" fill="rgb(255,255,255)" />
		</clipPath>
	</defs>
	<rect id="icon_bg2" width="44.000000" height="44.000000" x="0.000000" y="0.000000" rx="22.000000" fill="rgb(230,244,251)" />
	<g id="bookmark" customFrame="url(#clipPath_11)">
		<rect id="bookmark" width="24.000000" height="24.000000" x="10.000000" y="10.000000" />
		<path id="矢量 11" d="M28 13.2679C28.304 13.4435 28.5565 13.696 28.732 14C28.9076 14.304 29 14.6489 29 15L29 30C28.9999 30.1751 28.9539 30.3472 28.8665 30.4989C28.7791 30.6506 28.6533 30.7767 28.5019 30.8646C28.3504 30.9525 28.1785 30.9991 28.0034 30.9997C27.8283 31.0003 27.6561 30.9549 27.504 30.868L22.992 28.29C22.6899 28.1174 22.3479 28.0266 22 28.0266C21.6521 28.0266 21.3101 28.1174 21.008 28.29L16.496 30.868C16.3439 30.9549 16.1717 31.0003 15.9966 30.9997C15.8215 30.9991 15.6496 30.9525 15.4981 30.8646C15.3467 30.7767 15.2209 30.6506 15.1335 30.4989C15.0461 30.3472 15.0001 30.1751 15 30L15 15C15 14.6489 15.0924 14.304 15.268 14C15.4435 13.696 15.696 13.4435 16 13.2679C16.304 13.0924 16.6489 13 17 13L27 13C27.3511 13 27.696 13.0924 28 13.2679Z" fill-rule="nonzero" stroke="rgb(26,174,229)" stroke-linecap="round" stroke-linejoin="round" stroke-width="2.000000" />
	</g>
</svg>
